#!OML:ASF I:\Actors\actors\Patient Classification 1\Patient 1\Session 1\Subject1.ASF
:FULLY-SPECIFIED
:DEGREES
1215
root 0.468563 17.6308 7.87426 6.58029 -1.28525 -6.67458
lowerback 3.99258 2.36374 7.51277
upperback -7.52801 3.87247 -0.0453999
thorax -9.80494 1.31565 -4.71349
lowerneck -14.0399 -3.7218 -3.8657
upperneck 37.9768 -8.8028 10.7373
head 16.8765 -2.7585 3.88851
rclavicle -7.60351e-015 -1.15295e-014
rhumerus -46.9745 42.4529 -105.158
rradius 46.2907
rwrist -3.40822
rhand 23.5559 -32.5442
rfingers 7.12502
rthumb 47.8321 -54.835
lclavicle -7.60351e-015 -1.15295e-014
lhumerus -62.5065 -53.5844 120.257
lradius 45.8611
lwrist 17.6531
lhand 12.7079 -1.80591
lfingers 7.12502
lthumb 37.6899 24.077
rfemur -0.337431 25.1714 24.3853
rtibia 1.73081
rfoot -11.6378 -25.874
rtoes 4.09256
lfemur 6.10919 -38.2631 -13.561
ltibia -3.63504
lfoot -13.8232 44.0504
ltoes 0.875066
1216
root 0.467031 17.6315 7.8866 6.51112 -1.22263 -6.66579
lowerback 4.00363 2.38543 7.56184
upperback -7.64659 3.91252 -0.060811
thorax -9.93665 1.3214 -4.76651
lowerneck -13.8272 -3.81234 -4.07605
upperneck 38.1125 -8.96115 10.8966
head 16.942 -2.83879 3.98265
rclavicle -1.61513e-014 8.34896e-015
rhumerus -48.7483 43.6345 -105.702
rradius 48.574
rwrist -5.39099
rhand 22.6227 -33.1085
rfingers 7.12502
rthumb 46.97 -55.7879
lclavicle -1.61513e-014 8.34896e-015
lhumerus -61.5171 -52.2605 117.929
lradius 47.2685
lwrist 17.0858
lhand 13.9375 -0.947557
lfingers 7.12502
lthumb 38.8506 24.6151
rfemur -0.178175 25.1908 24.4591
rtibia 1.72422
rfoot -11.7216 -25.952
rtoes 4.02972
lfemur 6.18569 -38.0176 -13.5717
ltibia -3.64862
lfoot -13.7336 43.7227
ltoes 0.774504
1217
root 0.466254 17.6309 7.90801 6.41117 -1.36744 -6.69551
lowerback 3.97166 2.47199 7.63398
upperback -7.72247 4.03591 -0.0718302
thorax -9.98206 1.37136 -4.83228
lowerneck -13.6678 -3.89313 -4.28264
upperneck 38.2367 -9.11715 11.0845
head 17.0185 -2.91269 4.08946
rclavicle 1.85367e-014 -2.82274e-014
rhumerus -49.5908 43.011 -105.081
rradius 50.8157
rwrist -5.90337
rhand 22.3158 -33.8868
rfingers 7.12502
rthumb 46.686 -56.6902
lclavicle 1.85367e-014 -2.82274e-014
lhumerus -60.3971 -50.6834 115.403
lradius 48.782
lwrist 16.2865
lhand 15.6859 -0.247324
lfingers 7.12502
lthumb 40.4969 24.8269
rfemur 0.0453148 25.1666 24.6101
rtibia 1.71757
rfoot -11.6816 -25.8101
rtoes 3.60713
lfemur 6.64978 -38.085 -13.8218
ltibia -3.82073
lfoot -13.9087 43.9094
ltoes 0.957515
1218
root 0.467794 17.6268 7.92643 6.38411 -1.33797 -6.72527
lowerback 4.07168 2.46018 7.7402
upperback -7.94342 4.04858 -0.108775
thorax -10.2836 1.34642 -4.94719
lowerneck -13.2606 -3.90749 -4.12257
upperneck 38.2199 -9.21116 11.1279
head 16.9118 -2.93663 4.06447
rclavicle -4.76089e-014 -3.97569e-015
rhumerus -50.3005 41.4319 -104.206
rradius 52.9192
rwrist -5.40852
rhand 21.9099 -34.1235
rfingers 7.12502
rthumb 46.31 -57.0878
lclavicle -4.76089e-014 -3.97569e-015
lhumerus -59.7198 -48.7747 113.121
lradius 50.1567
lwrist 15.0386
lhand 16.1344 -0.551964
lfingers 7.12502
lthumb 40.9183 24.3903
rfemur 0.197009 25.1442 24.6898
rtibia 1.65107
rfoot -11.6993 -25.8395
rtoes 3.43767
lfemur 6.87274 -38.3147 -13.9644
ltibia -3.8723
lfoot -14.0714 44.1205
ltoes 1.17056
1219
root 0.46784 17.6219 7.94158 6.35419 -1.20021 -6.73238
lowerback 4.24002 2.40203 7.7915
upperback -8.16567 3.99986 -0.154878
thorax -10.6404 1.29199 -5.03931
lowerneck -12.909 -3.93894 -3.999
upperneck 38.1877 -9.34708 11.244
head 16.826 -2.97311 4.07125
rclavicle 4.26393e-014 3.85642e-014
rhumerus -50.8621 39.4894 -103.193
rradius 54.8101
rwrist -4.39573
rhand 21.2051 -33.6283
rfingers 7.12502
rthumb 45.656 -56.8647
lclavicle 4.26393e-014 3.85642e-014
lhumerus -59.1638 -46.6621 110.906
lradius 51.3859
lwrist 13.8921
lhand 15.4883 -1.28713
lfingers 7.12502
lthumb 40.3111 23.8443
rfemur 0.370188 25.2257 24.7644
rtibia 1.56433
rfoot -11.849 -26.0289
rtoes 3.8695
lfemur 6.97377 -38.4229 -14.0161
ltibia -3.89987
lfoot -14.0535 44.1166
ltoes 1.20642
1220
root 0.467251 17.6162 7.95515 6.34528 -1.06485 -6.69304
lowerback 3.9517 2.3205 7.65423
upperback -8.03449 3.84863 -0.0787316
thorax -10.3487 1.25221 -4.84106
lowerneck -12.9456 -3.95552 -4.04175
upperneck 37.9759 -9.3836 11.3649
head 16.7379 -2.98324 4.11333
rclavicle -8.59744e-015 1.90833e-014
rhumerus -50.5746 37.5155 -101.431
rradius 56.7115
rwrist -3.40782
rhand 20.9621 -33.3573
rfingers 7.12502
rthumb 45.4302 -56.6854
lclavicle -8.59744e-015 1.90833e-014
lhumerus -57.6281 -44.1814 108.019
lradius 52.6536
lwrist 13.5568
lhand 15.527 -1.17712
lfingers 7.12502
lthumb 40.3475 23.9432
rfemur 0.490077 25.3023 24.771
rtibia 1.5188
rfoot -11.9826 -26.2194
rtoes 4.19532
lfemur 7.04387 -38.5624 -14.1006
ltibia -3.92875
lfoot -14.0461 44.1435
ltoes 1.09346
1221
root 0.466968 17.61 7.97003 6.2921 -1.03255 -6.62659
lowerback 3.99217 2.28322 7.59419
upperback -8.07662 3.79715 -0.0975497
thorax -10.4296 1.22593 -4.82622
lowerneck -12.8897 -3.98511 -4.10593
upperneck 37.9404 -9.45949 11.4898
head 16.7298 -3.01179 4.16722
rclavicle -4.52235e-015 -1.90833e-014
rhumerus -50.4529 34.36 -99.5774
rradius 58.6441
rwrist -1.89834
rhand 21.2628 -33.3878
rfingers 7.12502
rthumb 45.7096 -56.6023
lclavicle -4.52235e-015 -1.90833e-014
lhumerus -56.6436 -41.3027 105.38
lradius 53.9829
lwrist 13.4797
lhand 15.7436 -0.724681
lfingers 7.12502
lthumb 40.5511 24.3327
rfemur 0.649432 25.2985 24.762
rtibia 1.49397
rfoot -12.0297 -26.2766
rtoes 4.18063
lfemur 7.32968 -38.8319 -14.3883
ltibia -4.01296
lfoot -14.1939 44.3804
ltoes 1.20045
1222
root 0.465753 17.6032 7.98603 6.20589 -1.04947 -6.55021
lowerback 4.05063 2.20093 7.42889
upperback -8.08517 3.68255 -0.0278178
thorax -10.5015 1.18318 -4.64975
lowerneck -12.9365 -3.9328 -4.21298
upperneck 37.979 -9.36032 11.506
head 16.7563 -2.98283 4.21482
rclavicle -7.7526e-015 1.59028e-015
rhumerus -50.3167 30.2994 -97.3733
rradius 60.6939
rwrist 0.499759
rhand 21.9737 -33.2463
rfingers 7.12502
rthumb 46.3691 -56.1855
lclavicle -7.7526e-015 1.59028e-015
lhumerus -55.7899 -37.7908 102.782
lradius 55.2976
lwrist 12.6128
lhand 15.6598 -0.850017
lfingers 7.12502
lthumb 40.4723 24.2318
rfemur 0.846277 25.3225 24.764
rtibia 1.48541
rfoot -12.1709 -26.2704
rtoes 4.51044
lfemur 7.72415 -39.081 -14.7535
ltibia -4.15107
lfoot -14.2148 44.6503
ltoes 1.21181
1223
root 0.464898 17.5969 8.00075 6.17125 -1.01812 -6.48161
lowerback 4.10998 2.04735 7.2449
upperback -8.1043 3.47586 0.102309
thorax -10.6018 1.09888 -4.387
lowerneck -12.9912 -3.80447 -4.35149
upperneck 37.9574 -9.12014 11.5119
head 16.7326 -2.90253 4.28482
rclavicle -1.49089e-016 1.43125e-014
rhumerus -50.7622 29.272 -96.63
rradius 62.2313
rwrist -0.0606651
rhand 21.8658 -33.4046
rfingers 7.12502
rthumb 46.269 -56.3863
lclavicle -1.49089e-016 1.43125e-014
lhumerus -55.1981 -33.7503 100.24
lradius 56.6917
lwrist 10.6963
lhand 15.99 -1.40699
lfingers 7.12502
lthumb 40.7827 23.5781
rfemur 0.967242 25.3236 24.7393
rtibia 1.46944
rfoot -12.2944 -26.291
rtoes 4.62509
lfemur 7.94968 -39.2752 -14.994
ltibia -4.23996
lfoot -14.0988 44.8413
ltoes 0.903985
1224
root 0.464361 17.5908 8.01334 6.17866 -0.962226 -6.42005
lowerback 4.19914 1.85998 7.10354
upperback -8.14353 3.2285 0.204059
thorax -10.7431 0.987945 -4.1749
lowerneck -13.0141 -3.64324 -4.35248
upperneck 37.8448 -8.8504 11.4949
head 16.6378 -2.7955 4.31726
rclavicle -9.0944e-015 1.59028e-014
rhumerus -50.9988 26.58 -95.2914
rradius 64.1434
rwrist 0.192459
rhand 23.3586 -34.7409
rfingers 7.12502
rthumb 47.65 -57.1154
lclavicle -9.0944e-015 1.59028e-014
lhumerus -54.8509 -29.394 97.7008
lradius 58.2098
lwrist 8.13584
lhand 16.8422 -1.47109
lfingers 7.12502
lthumb 41.5828 23.2572
rfemur 1.03691 25.3416 24.7049
rtibia 1.43801
rfoot -12.3101 -26.386
rtoes 4.49233
lfemur 8.07479 -39.5487 -15.1873
ltibia -4.25021
lfoot -14.1305 45.0777
ltoes 0.81836
1225
root 0.46399 17.5836 8.0261 6.20469 -0.93885 -6.37278
lowerback 4.44018 1.73226 7.08854
upperback -8.30317 3.08103 0.169858
thorax -11.09 0.89628 -4.20138
lowerneck -12.9725 -3.53951 -4.11138
upperneck 37.7866 -8.7531 11.4751
head 16.5685 -2.7258 4.27648
rclavicle 2.14687e-014 2.74323e-014
rhumerus -51.6409 22.3397 -93.7179
rradius 66.5768
rwrist 1.23808
rhand 23.5089 -36.0483
rfingers 7.12502
rthumb 47.7887 -58.359
lclavicle 2.14687e-014 2.74323e-014
lhumerus -55.0697 -25.1525 95.359
lradius 59.8096
lwrist 5.64105
lhand 17.6065 -1.24373
lfingers 7.12502
lthumb 42.2992 23.2453
rfemur 1.08182 25.3354 24.6694
rtibia 1.40983
rfoot -12.3113 -26.4162
rtoes 4.45064
lfemur 8.25296 -39.942 -15.4268
ltibia -4.25002
lfoot -14.4256 45.4313
ltoes 1.1808
1226
root 0.467666 17.5693 8.03744 6.44445 -1.16512 -6.45702
lowerback 4.63382 1.78134 7.3319
upperback -8.60446 3.1919 0.0266833
thorax -11.5267 0.893388 -4.52452
lowerneck -12.897 -3.52507 -3.73916
upperneck 37.8066 -8.85225 11.4727
head 16.5553 -2.71562 4.1902
rclavicle -3.18055e-015 2.22639e-014
rhumerus -52.4141 19.5554 -92.9909
rradius 67.658
rwrist 0.905014
rhand 20.6628 -34.8965
rfingers 7.12502
rthumb 45.152 -58.336
lclavicle -3.18055e-015 2.22639e-014
lhumerus -55.7116 -21.1902 93.183
lradius 61.3025
lwrist 4.47118
lhand 18.0036 -1.18229
lfingers 7.12502
lthumb 42.6709 23.1789
rfemur 0.699847 25.0799 24.5486
rtibia 1.53629
rfoot -12.2186 -25.9256
rtoes 4.15054
lfemur 8.28317 -40.3852 -15.4667
ltibia -4.25953
lfoot -15.1173 46.0272
ltoes 2.10415
1227
root 0.476126 17.5469 8.03833 6.97208 -1.74475 -6.64598
lowerback 4.53265 1.97092 7.65071
upperback -8.86154 3.47515 -0.0836149
thorax -11.7075 0.980266 -4.86157
lowerneck -12.9158 -3.51556 -3.44699
upperneck 37.7502 -8.93533 11.5021
head 16.5294 -2.7049 4.13049
rclavicle -5.56597e-015 3.97569e-016
rhumerus -53.0137 16.027 -91.8234
rradius 68.9014
rwrist 0.375572
rhand 19.6031 -34.0555
rfingers 7.12502
rthumb 44.1652 -57.8765
lclavicle -5.56597e-015 3.97569e-016
lhumerus -56.1989 -17.1381 90.9296
lradius 62.6828
lwrist 4.76794
lhand 18.131 -0.567564
lfingers 7.12502
lthumb 42.7902 23.7521
rfemur -0.331984 24.5108 24.2267
rtibia 1.93657
rfoot -11.978 -24.763
rtoes 3.40841
lfemur 7.93568 -40.6629 -15.1816
ltibia -4.25366
lfoot -16.003 46.7913
ltoes 3.3067
1228
root 0.477399 17.5388 8.0439 6.78236 -1.64116 -6.97328
lowerback 4.66518 1.83467 8.00118
upperback -8.64193 3.33767 0.0170877
thorax -11.5493 0.901079 -4.92993
lowerneck -13.2645 -3.44701 -3.30164
upperneck 37.6561 -8.88206 11.5405
head 16.5571 -2.64729 4.12215
rclavicle 1.53064e-014 -2.0276e-014
rhumerus -53.2237 12.323 -90.2972
rradius 70.2741
rwrist -0.769353
rhand 20.0201 -34.567
rfingers 7.12502
rthumb 44.5538 -58.2402
lclavicle 1.53064e-014 -2.0276e-014
lhumerus -56.3515 -12.7936 88.6232
lradius 63.8266
lwrist 5.5095
lhand 16.6509 0.214957
lfingers 7.12502
lthumb 41.4033 25.0018
rfemur -0.0102953 24.3703 24.739
rtibia 1.87653
rfoot -11.9806 -24.7052
rtoes 3.20103
lfemur 8.27677 -40.5548 -14.979
ltibia -4.37847
lfoot -15.8189 46.6578
ltoes 3.112
